<svg width="20" height="20" viewBox="0 0 20 20" fill="none" xmlns="http://www.w3.org/2000/svg">
<path d="M17.126 16.2246C17.0472 16.2576 16.962 16.2754 16.875 16.2754H3.125C3.03799 16.2754 2.95276 16.2576 2.87402 16.2246H17.126ZM17.4746 5.37402C17.5076 5.45276 17.5254 5.53799 17.5254 5.625V15.625C17.5254 15.7117 17.5073 15.7965 17.4746 15.875V9.32227L16.6113 9.74414C14.5529 10.7511 12.2916 11.2754 10 11.2754L9.57031 11.2686C7.42631 11.2077 5.31837 10.689 3.38867 9.74512L2.52539 9.32324V15.875C2.49266 15.7965 2.47461 15.7117 2.47461 15.625V5.625C2.47461 5.53799 2.49243 5.45276 2.52539 5.37402V9.2334L2.83789 9.40332C4.89818 10.5242 7.19127 11.1449 9.53125 11.2178L10 11.2246C12.502 11.225 14.9645 10.5985 17.1621 9.40234L17.4746 9.23242V5.37402ZM8.75 8.72461H11.25C11.2566 8.72461 11.2629 8.72773 11.2676 8.73242C11.2723 8.73711 11.2754 8.74337 11.2754 8.75C11.2754 8.75663 11.2723 8.76289 11.2676 8.76758C11.2629 8.77227 11.2566 8.77539 11.25 8.77539H8.75C8.74337 8.77539 8.73711 8.77227 8.73242 8.76758C8.72773 8.76289 8.72461 8.75663 8.72461 8.75C8.72461 8.74337 8.72773 8.73711 8.73242 8.73242C8.73711 8.72773 8.74337 8.72461 8.75 8.72461ZM8.125 2.47461H11.875C12.2132 2.47461 12.5373 2.60952 12.7764 2.84863C13.0155 3.08774 13.1504 3.41185 13.1504 3.75V4.97461H16.875C16.962 4.97461 17.0472 4.99243 17.126 5.02539H2.87402C2.95276 4.99243 3.03799 4.97461 3.125 4.97461H6.84961V3.75C6.84961 3.41185 6.98452 3.08774 7.22363 2.84863C7.46274 2.60952 7.78685 2.47461 8.125 2.47461ZM8.125 2.52539C7.80011 2.52539 7.48852 2.65406 7.25879 2.88379C7.02906 3.11352 6.90039 3.42511 6.90039 3.75V4.97461H13.0996V3.75C13.0996 3.42511 12.9709 3.11352 12.7412 2.88379C12.5115 2.65406 12.1999 2.52539 11.875 2.52539H8.125Z" stroke="#282529" stroke-width="1.2"/>
</svg>
