<svg width="20" height="20" viewBox="0 0 20 20" fill="none" xmlns="http://www.w3.org/2000/svg">
<path d="M16.501 16.8496C16.4222 16.8826 16.337 16.9004 16.25 16.9004H3.75C3.66299 16.9004 3.57776 16.8826 3.49902 16.8496H16.501ZM16.8496 3.49902C16.8826 3.57776 16.9004 3.66299 16.9004 3.75V16.25C16.9004 16.3367 16.8823 16.4215 16.8496 16.5V6.90039H3.15039V16.5C3.11766 16.4215 3.09961 16.3367 3.09961 16.25V3.75C3.09961 3.66299 3.11743 3.57776 3.15039 3.49902V6.84961H16.8496V3.49902ZM13.75 1.84961C13.7566 1.84961 13.7629 1.85273 13.7676 1.85742C13.7723 1.86211 13.7754 1.86837 13.7754 1.875V3.09961H16.25C16.337 3.09961 16.4222 3.11743 16.501 3.15039H13.7754V4.375C13.7754 4.38163 13.7723 4.38789 13.7676 4.39258C13.7629 4.39727 13.7566 4.40039 13.75 4.40039C13.7434 4.40039 13.7371 4.39727 13.7324 4.39258C13.7277 4.38789 13.7246 4.38163 13.7246 4.375V3.15039H6.27539V4.375C6.27539 4.38163 6.27227 4.38789 6.26758 4.39258C6.26289 4.39727 6.25663 4.40039 6.25 4.40039C6.24337 4.40039 6.23711 4.39727 6.23242 4.39258C6.22773 4.38789 6.22461 4.38163 6.22461 4.375V3.15039H3.49902C3.57776 3.11743 3.66299 3.09961 3.75 3.09961H6.22461V1.875C6.22461 1.86837 6.22773 1.86211 6.23242 1.85742L6.25 1.84961C6.25663 1.84961 6.26289 1.85273 6.26758 1.85742C6.27227 1.86211 6.27539 1.86837 6.27539 1.875V3.09961H13.7246V1.875C13.7246 1.86837 13.7277 1.86211 13.7324 1.85742L13.75 1.84961Z" stroke="#282529" stroke-width="1.2"/>
</svg>
