<svg width="16" height="16" viewBox="0 0 16 16" fill="none" xmlns="http://www.w3.org/2000/svg">
<path d="M9.80434 4.47231C9.74266 4.4105 9.6694 4.36147 9.58875 4.32802C9.5081 4.29456 9.42165 4.27734 9.33434 4.27734C9.24703 4.27734 9.16057 4.29456 9.07992 4.32802C8.99927 4.36147 8.92601 4.4105 8.86434 4.47231L5.80434 7.53231C5.74254 7.59398 5.6935 7.66724 5.66005 7.74789C5.6266 7.82854 5.60938 7.91499 5.60938 8.00231C5.60938 8.08962 5.6266 8.17607 5.66005 8.25672C5.6935 8.33737 5.74254 8.41063 5.80434 8.47231L8.86434 11.5323C8.92606 11.594 8.99933 11.643 9.07998 11.6764C9.16062 11.7098 9.24705 11.727 9.33434 11.727C9.42162 11.727 9.50806 11.7098 9.5887 11.6764C9.66934 11.643 9.74262 11.594 9.80434 11.5323C9.86606 11.4706 9.91502 11.3973 9.94842 11.3167C9.98183 11.236 9.99902 11.1496 9.99902 11.0623C9.99902 10.975 9.98183 10.8886 9.94842 10.8079C9.91502 10.7273 9.86606 10.654 9.80434 10.5923L7.21767 7.99897L9.80434 5.41231C10.0643 5.15231 10.0577 4.72564 9.80434 4.47231Z" fill="#7A58D0"/>
</svg>
