<svg width="16" height="16" viewBox="0 0 16 16" fill="none" xmlns="http://www.w3.org/2000/svg">
<path d="M2.00098 8.12988C2.00445 8.29044 2.01493 8.45071 2.03125 8.61035M2.00098 8.12988C2.00444 8.29013 2.01489 8.4504 2.03125 8.61035M2.00098 8.12988C2.00003 8.08626 2.00097 8.04263 2.00098 7.99902C2.00097 8.04265 2.00003 8.08628 2.00098 8.12988ZM2.03125 8.61035C2.03682 8.66478 2.04372 8.7191 2.05078 8.77344C2.04372 8.71913 2.03682 8.66482 2.03125 8.61035ZM2.27344 6.20996C2.2932 6.14673 2.31502 6.08414 2.33691 6.02148C2.31506 6.08403 2.29323 6.14663 2.27344 6.20996ZM2.27344 6.20996C2.2568 6.26318 2.24071 6.31653 2.22559 6.37012C2.24073 6.31645 2.25683 6.26311 2.27344 6.20996ZM4.23145 3.33105C4.2841 3.28856 4.33744 3.24682 4.3916 3.20605C4.33753 3.24675 4.28418 3.28849 4.23145 3.33105ZM4.23145 3.33105C4.18429 3.36912 4.13772 3.40785 4.0918 3.44727C4.13778 3.40779 4.18436 3.36906 4.23145 3.33105ZM7.97559 13.999C7.92839 13.9988 7.88119 13.9984 7.83398 13.9971C7.88114 13.9984 7.92833 13.9988 7.97559 13.999ZM8.25586 13.9932C8.18299 13.9963 8.11009 13.9986 8.03711 13.999C8.1102 13.9985 8.18309 13.9963 8.25586 13.9932ZM7.74902 13.9941C7.69495 13.9919 7.64096 13.9881 7.58691 13.9844C7.64089 13.9881 7.69488 13.9919 7.74902 13.9941ZM8.87305 13.9346C8.69002 13.9615 8.50601 13.9803 8.32129 13.9902C8.50662 13.9801 8.69068 13.9616 8.87305 13.9346ZM7.5459 13.9814C7.48824 13.9771 7.43064 13.9719 7.37305 13.9658C7.43056 13.9719 7.48815 13.9771 7.5459 13.9814ZM7.3125 13.959C7.27016 13.9541 7.22782 13.9492 7.18555 13.9434C7.22778 13.9491 7.27011 13.9541 7.3125 13.959ZM9.16699 13.8838C9.07842 13.9014 8.9896 13.9171 8.90039 13.9307C8.98971 13.917 9.07859 13.9014 9.16699 13.8838ZM7.0791 13.9277C7.04844 13.923 7.01792 13.9174 6.9873 13.9121C7.0179 13.9173 7.04842 13.923 7.0791 13.9277ZM6.86133 13.8896C6.85078 13.8876 6.83964 13.8869 6.8291 13.8848C6.80322 13.8796 6.77774 13.8727 6.75195 13.8672C6.78836 13.8749 6.82477 13.8826 6.86133 13.8896ZM13.9678 8.60352C13.8694 9.57669 13.536 10.5146 12.9893 11.333C12.33 12.3197 11.3923 13.0888 10.2959 13.543C9.93407 13.6928 9.56 13.8046 9.17969 13.8809C10.3308 13.6489 11.3986 13.0838 12.2412 12.2412C13.2229 11.2595 13.8281 9.97249 13.9678 8.60352ZM6.64258 13.8428C6.61064 13.8354 6.57866 13.8282 6.54688 13.8203C6.57867 13.8283 6.61065 13.8354 6.64258 13.8428ZM6.43262 13.791C6.3937 13.7805 6.35506 13.7691 6.31641 13.7578C6.35508 13.7691 6.39372 13.7805 6.43262 13.791ZM6.22168 13.7295C6.18932 13.7194 6.15717 13.7088 6.125 13.6982C6.15718 13.7088 6.18933 13.7195 6.22168 13.7295ZM6.00781 13.6592C5.97574 13.6479 5.94396 13.6358 5.91211 13.624C5.94398 13.6359 5.97576 13.6479 6.00781 13.6592ZM5.79492 13.5791C5.77277 13.5703 5.75056 13.5618 5.72852 13.5527C5.75056 13.5618 5.77277 13.5703 5.79492 13.5791ZM5.58398 13.4912C5.56438 13.4826 5.5449 13.4737 5.52539 13.4648C5.54491 13.4737 5.56438 13.4826 5.58398 13.4912ZM5.40234 13.4072C5.36533 13.3894 5.32863 13.3711 5.29199 13.3525C5.32865 13.3711 5.36535 13.3895 5.40234 13.4072ZM5.21289 13.3125C5.17032 13.2902 5.12796 13.2675 5.08594 13.2441C5.12798 13.2675 5.17035 13.2902 5.21289 13.3125ZM4.83594 13.0967C4.79727 13.0727 4.75883 13.0483 4.7207 13.0234C4.75885 13.0483 4.79729 13.0727 4.83594 13.0967ZM4.61035 12.9502C4.59724 12.9412 4.58433 12.9319 4.57129 12.9229C4.58433 12.9319 4.59723 12.9412 4.61035 12.9502ZM4.44336 12.8311C4.42611 12.8184 4.40872 12.8059 4.3916 12.793C4.40871 12.8058 4.4261 12.8183 4.44336 12.8311ZM4.0918 12.5518C4.07902 12.5408 4.0664 12.5296 4.05371 12.5186C4.0664 12.5296 4.07901 12.5408 4.0918 12.5518ZM3.93164 12.4092C3.91167 12.3908 3.8918 12.3722 3.87207 12.3535C3.89179 12.3722 3.91166 12.3907 3.93164 12.4092ZM3.77246 12.2559C3.76773 12.2512 3.76253 12.2469 3.75781 12.2422C3.74625 12.2306 3.73509 12.2187 3.72363 12.207C3.73978 12.2234 3.75613 12.2396 3.77246 12.2559ZM3.63086 12.1104C3.59688 12.0742 3.56329 12.0379 3.53027 12.001C3.56331 12.0379 3.59691 12.0743 3.63086 12.1104ZM3.48633 11.9521C3.46014 11.9222 3.43474 11.8917 3.40918 11.8613C3.43475 11.8917 3.46016 11.9223 3.48633 11.9521ZM3.33008 11.7666C3.31319 11.7457 3.29687 11.7243 3.28027 11.7031C3.29688 11.7243 3.31319 11.7457 3.33008 11.7666ZM3.19727 11.5947C3.17115 11.5598 3.14545 11.5247 3.12012 11.4893C3.14546 11.5247 3.17116 11.5599 3.19727 11.5947ZM3.06934 11.418C3.0485 11.3879 3.02809 11.3576 3.00781 11.3271C3.0281 11.3576 3.04851 11.3879 3.06934 11.418ZM2.95605 11.249C2.93292 11.2131 2.91005 11.177 2.8877 11.1406C2.91006 11.177 2.93293 11.2131 2.95605 11.249ZM2.83301 11.0498C2.81055 11.0118 2.78919 10.9731 2.76758 10.9346C2.7892 10.9731 2.81056 11.0118 2.83301 11.0498ZM2.73633 10.8779C2.71082 10.8313 2.68539 10.7846 2.66113 10.7373C2.6854 10.7846 2.71084 10.8313 2.73633 10.8779ZM2.62988 10.6768C2.60371 10.6242 2.57932 10.5709 2.55469 10.5176C2.57934 10.5709 2.60373 10.6243 2.62988 10.6768ZM2.53027 10.4658C2.51122 10.4235 2.49367 10.3806 2.47559 10.3379C2.49368 10.3806 2.51123 10.4236 2.53027 10.4658ZM2.36816 10.0664C2.35412 10.0281 2.34042 9.98975 2.32715 9.95117C2.3404 9.98971 2.35411 10.0281 2.36816 10.0664ZM2.22266 9.61914C2.20805 9.56702 2.19485 9.51449 2.18164 9.46191C2.19483 9.51442 2.20803 9.56695 2.22266 9.61914ZM2.17188 9.42188C2.15946 9.37097 2.14782 9.31986 2.13672 9.26855C2.1478 9.31979 2.15944 9.3709 2.17188 9.42188ZM2.125 9.21484C2.12196 9.20015 2.11816 9.18562 2.11523 9.1709C2.10906 9.13986 2.10431 9.10824 2.09863 9.07715C2.10702 9.12312 2.11553 9.16906 2.125 9.21484ZM2.07715 8.95605C2.07316 8.93136 2.07008 8.90655 2.06641 8.88184C2.07008 8.90656 2.07316 8.93137 2.07715 8.95605ZM13.9902 8.32227C13.9861 8.39996 13.9798 8.47738 13.9727 8.55469C13.9799 8.47743 13.986 8.39999 13.9902 8.32227ZM14 8.00098C14 8.09166 13.9973 8.18216 13.9932 8.27246C13.9974 8.18222 13.9999 8.09171 14 8.00098ZM2.05078 7.22266C2.05717 7.17372 2.06466 7.12495 2.07227 7.07617C2.06466 7.12498 2.05717 7.17375 2.05078 7.22266ZM2.08105 7.01953C2.08819 6.97645 2.09641 6.93356 2.10449 6.89062C2.09641 6.93358 2.08819 6.97647 2.08105 7.01953ZM2.125 6.78418C2.13385 6.74142 2.14353 6.69884 2.15332 6.65625C2.14354 6.69879 2.13386 6.74137 2.125 6.78418ZM2.17188 6.57715C2.18064 6.54126 2.18979 6.50547 2.19922 6.46973C2.1898 6.50544 2.18064 6.54123 2.17188 6.57715ZM2.54004 5.51367C2.55181 5.48781 2.56404 5.46219 2.57617 5.43652C2.56404 5.4622 2.55181 5.48782 2.54004 5.51367ZM2.63184 5.32129C2.64556 5.29379 2.6597 5.26652 2.67383 5.23926C2.65969 5.26653 2.64555 5.2938 2.63184 5.32129ZM2.73926 5.11621C2.75881 5.08054 2.77857 5.045 2.79883 5.00977C2.77856 5.04502 2.7588 5.08055 2.73926 5.11621ZM2.83887 4.94043C2.85675 4.91026 2.87515 4.88042 2.89355 4.85059C2.87515 4.88043 2.85674 4.91027 2.83887 4.94043ZM2.95605 4.75C2.9765 4.71827 2.9985 4.68758 3.01953 4.65625C2.99849 4.68759 2.97649 4.71828 2.95605 4.75ZM3.06934 4.58105C3.09658 4.54177 3.12516 4.50345 3.15332 4.46484C3.12514 4.50348 3.09656 4.54179 3.06934 4.58105ZM3.2041 4.39551C3.23102 4.35969 3.25842 4.32426 3.28613 4.28906C3.25841 4.32428 3.23101 4.35971 3.2041 4.39551ZM3.33008 4.23242C3.35677 4.19933 3.38472 4.16728 3.41211 4.13477C3.3847 4.1673 3.35676 4.19935 3.33008 4.23242ZM3.49512 4.03809C3.51156 4.01939 3.52824 4.00092 3.54492 3.98242C3.52824 4.00092 3.51156 4.01939 3.49512 4.03809ZM3.63672 3.88281C3.671 3.84648 3.70602 3.81087 3.74121 3.77539C3.70599 3.81089 3.67098 3.84651 3.63672 3.88281ZM3.77246 3.74316C3.81508 3.70083 3.85843 3.65923 3.90234 3.61816C3.8585 3.65917 3.81515 3.70077 3.77246 3.74316ZM3.9375 3.58398C3.97701 3.54764 4.0171 3.51187 4.05762 3.47656C4.01716 3.51183 3.97706 3.54759 3.9375 3.58398ZM4.44336 3.16797C4.49691 3.12855 4.55149 3.09043 4.60645 3.05273C4.55158 3.09037 4.497 3.12849 4.44336 3.16797ZM4.62012 3.04297C4.63562 3.0324 4.65138 3.02117 4.66699 3.01074C4.6866 2.99764 4.70682 2.98551 4.72656 2.97266C4.69093 2.99586 4.65526 3.019 4.62012 3.04297ZM5.0127 2.7959C5.04304 2.77848 5.07388 2.76198 5.10449 2.74512C5.07387 2.76199 5.04302 2.77849 5.0127 2.7959ZM5.21289 2.68652C5.23907 2.67279 5.26563 2.65982 5.29199 2.64648C5.26562 2.65982 5.23906 2.6728 5.21289 2.68652ZM5.41113 2.58789C5.44911 2.56972 5.48706 2.55153 5.52539 2.53418C5.48704 2.55154 5.44909 2.56973 5.41113 2.58789ZM5.58789 2.50684C5.63464 2.48631 5.68129 2.4656 5.72852 2.44629C5.68126 2.46562 5.63461 2.48632 5.58789 2.50684ZM5.79492 2.41992C5.8371 2.40326 5.87935 2.38679 5.92188 2.37109C5.87933 2.3868 5.83707 2.40326 5.79492 2.41992ZM6.22168 2.26953C6.25956 2.25778 6.29783 2.24733 6.33594 2.23633C6.29781 2.24734 6.25954 2.25778 6.22168 2.26953ZM6.43262 2.20801C6.47476 2.1966 6.51718 2.18626 6.55957 2.17578C6.51716 2.18627 6.47473 2.19661 6.43262 2.20801ZM6.64258 2.15625C6.67896 2.1478 6.7154 2.13961 6.75195 2.13184C6.71539 2.13961 6.67895 2.1478 6.64258 2.15625ZM6.86133 2.10938C6.9032 2.10128 6.94524 2.09412 6.9873 2.08691C6.94529 2.09411 6.90324 2.10127 6.86133 2.10938ZM7.0791 2.07129C7.11453 2.06579 7.15 2.06053 7.18555 2.05566C7.15003 2.06053 7.11456 2.06578 7.0791 2.07129ZM8.87793 2.06543C8.8828 2.06616 8.88771 2.06665 8.89258 2.06738C8.88771 2.06665 8.8828 2.06615 8.87793 2.06543ZM7.3125 2.04004C7.33267 2.03771 7.35284 2.03533 7.37305 2.0332C7.35285 2.03533 7.33268 2.03771 7.3125 2.04004ZM7.5459 2.01758C7.55956 2.01654 7.57324 2.01559 7.58691 2.01465C7.57324 2.01559 7.55957 2.01654 7.5459 2.01758ZM8.25684 2.00586C8.27736 2.00676 8.29787 2.00768 8.31836 2.00879C8.29786 2.0077 8.27735 2.00674 8.25684 2.00586ZM7.74902 2.00488C7.77732 2.0037 7.80565 2.00274 7.83398 2.00195C7.80567 2.00274 7.77734 2.0037 7.74902 2.00488ZM5.0127 13.2031C4.96496 13.1757 4.91807 13.1469 4.87109 13.1182C4.9181 13.1469 4.96499 13.1757 5.0127 13.2031ZM2.44727 10.2715C2.42717 10.2224 2.40844 10.1727 2.38965 10.123C2.40842 10.1727 2.42715 10.2223 2.44727 10.2715Z" stroke="url(#paint0_linear_310_1553)"/>
<defs>
<linearGradient id="paint0_linear_310_1553" x1="8" y1="1.5" x2="8" y2="14.5" gradientUnits="userSpaceOnUse">
<stop offset="0.0001" stop-color="#B55DD9"/>
<stop offset="1" stop-color="#5054C9"/>
</linearGradient>
</defs>
</svg>
