<svg width="20" height="20" viewBox="0 0 20 20" fill="none" xmlns="http://www.w3.org/2000/svg">
<path d="M18.767 6.58594C18.7818 6.64801 18.7804 6.71276 18.7601 6.77344L18.7582 6.77832L15.8676 15.6318V15.6328C15.8664 15.6363 15.8642 15.6399 15.8617 15.6426C15.8592 15.6451 15.8562 15.6472 15.8529 15.6484C15.8494 15.6498 15.8449 15.6498 15.8412 15.6494L15.8314 15.6465C15.6944 15.5653 13.5966 14.3994 10.0013 14.3994C6.39829 14.3994 4.30037 15.5701 4.17224 15.6455C4.16902 15.6474 4.16523 15.6491 4.1615 15.6494C4.15787 15.6497 4.15416 15.6487 4.15076 15.6475C4.14739 15.6462 4.14448 15.6442 4.14197 15.6416C4.13938 15.6389 4.13727 15.6354 4.13611 15.6318L1.24548 6.77637C1.22631 6.71756 1.22441 6.6549 1.23767 6.59473L1.51794 7.45117L3.96228 14.9385L4.16541 15.5596L4.76697 15.3047C5.64205 14.9335 7.43122 14.3496 10.0013 14.3496C12.5715 14.3496 14.3606 14.9335 15.2357 15.3047L15.8373 15.5596L16.0404 14.9385L18.4847 7.45117L18.767 6.58594ZM1.54724 6.3252C1.60954 6.32027 1.67175 6.33152 1.72791 6.35938V6.3584L5.6488 8.31152L6.06287 8.51758C5.99975 8.52355 5.93614 8.51119 5.8783 8.4834L2.35583 6.72852L1.54724 6.3252ZM17.6469 6.72852L14.1283 8.48047C14.0696 8.50934 14.0041 8.52171 13.9398 8.51562L14.3539 8.30957L18.2767 6.35645L18.2777 6.35547C18.3349 6.32696 18.3988 6.31649 18.4623 6.32227L17.6469 6.72852ZM9.48767 3.10156L6.32849 8.35156C6.29539 8.40543 6.24791 8.44743 6.19275 8.47656L6.43005 8.08398L9.70447 2.6416L9.70544 2.64258C9.73624 2.59151 9.7795 2.54885 9.83142 2.51953C9.83396 2.5181 9.83667 2.51699 9.83923 2.51562L9.48767 3.10156ZM10.1713 2.51953C10.2229 2.5487 10.2665 2.5909 10.2972 2.6416L13.5726 8.08203L13.809 8.47559C13.7726 8.4563 13.7398 8.43105 13.7123 8.40039L13.6732 8.34863L10.516 3.10156L10.1635 2.51562C10.166 2.51699 10.1687 2.5181 10.1713 2.51953Z" stroke="#282529" stroke-width="1.2"/>
</svg>
