<svg width="20" height="20" viewBox="0 0 20 20" fill="none" xmlns="http://www.w3.org/2000/svg">
<path d="M16.0983 11.2498H12.8691C12.4412 11.2498 12.0307 11.4193 11.7274 11.7212C11.4242 12.0231 11.2528 12.4328 11.2508 12.8607V16.0898C11.2508 16.519 11.4213 16.9307 11.7248 17.2342C12.0283 17.5377 12.4399 17.7082 12.8691 17.7082H16.0983C16.5261 17.706 16.9355 17.5345 17.2372 17.2312C17.5389 16.928 17.7083 16.5176 17.7083 16.0898V12.8607C17.7083 12.4337 17.5387 12.0242 17.2367 11.7222C16.9348 11.4203 16.5253 11.2507 16.0983 11.2507M7.13079 11.2498H3.90163C3.47379 11.2523 3.0643 11.4239 2.76262 11.7273C2.46095 12.0307 2.29162 12.4412 2.29163 12.869V16.0982C2.29163 16.5252 2.46125 16.9347 2.76318 17.2366C3.06512 17.5385 3.47463 17.7082 3.90163 17.7082H7.13079C7.55856 17.7082 7.96893 17.5388 8.27219 17.2371C8.57545 16.9354 8.74692 16.5259 8.74913 16.0982V12.869C8.74913 12.4398 8.57862 12.0282 8.27513 11.7247C7.97163 11.4212 7.56 11.2507 7.13079 11.2507M7.13079 2.2915H3.90163C3.6902 2.2915 3.48084 2.33315 3.28551 2.41406C3.09017 2.49497 2.91269 2.61356 2.76318 2.76306C2.61368 2.91256 2.49509 3.09005 2.41418 3.28538C2.33327 3.48072 2.29163 3.69008 2.29163 3.9015V7.13067C2.29162 7.55844 2.46098 7.96881 2.76267 8.27207C3.06437 8.57533 3.47386 8.7468 3.90163 8.749H7.13079C7.56 8.749 7.97163 8.5785 8.27513 8.27501C8.57862 7.97151 8.74913 7.55988 8.74913 7.13067V3.9015C8.74692 3.47374 8.57545 3.06425 8.27219 2.76255C7.96893 2.46086 7.55856 2.2915 7.13079 2.2915ZM16.0983 2.2915H12.8691C12.4414 2.2915 12.031 2.46086 11.7277 2.76255C11.4245 3.06425 11.253 3.47374 11.2508 3.9015V7.13067C11.251 7.55981 11.4216 7.97131 11.725 8.27476C12.0285 8.57821 12.44 8.74878 12.8691 8.749H16.0983C16.5261 8.7468 16.9355 8.57533 17.2372 8.27207C17.5389 7.96881 17.7083 7.55844 17.7083 7.13067V3.9015C17.7083 3.47451 17.5387 3.065 17.2367 2.76306C16.9348 2.46113 16.5253 2.2915 16.0983 2.2915Z" stroke="#282529" stroke-linecap="round" stroke-linejoin="round"/>
</svg>
