<svg width="20" height="20" viewBox="0 0 20 20" fill="none" xmlns="http://www.w3.org/2000/svg">
<path d="M17.126 15.5996C17.0472 15.6326 16.962 15.6504 16.875 15.6504H3.125C3.03799 15.6504 2.95276 15.6326 2.87402 15.5996H17.126ZM2.5 4.34961H17.5C17.5066 4.34961 17.5129 4.35273 17.5176 4.35742C17.5223 4.36211 17.5254 4.36837 17.5254 4.375V15C17.5254 15.0867 17.5073 15.1715 17.4746 15.25V4.43164L16.4697 5.35352L10.0176 11.2686H10.0166C10.012 11.2728 10.0063 11.2754 10 11.2754C9.99374 11.2754 9.98801 11.2728 9.9834 11.2686H9.98242L3.53027 5.35352L2.52539 4.43164V15.25C2.49266 15.1715 2.47461 15.0867 2.47461 15V4.375C2.47461 4.36837 2.47773 4.36211 2.48242 4.35742C2.48711 4.35273 2.49337 4.34961 2.5 4.34961ZM3.70117 5.44238L9.59473 10.8447L10 11.2168L10.4053 10.8447L16.2988 5.44238L17.4355 4.40039H2.56445L3.70117 5.44238Z" stroke="#282529" stroke-width="1.2"/>
</svg>
