<svg width="20" height="20" viewBox="0 0 20 20" fill="none" xmlns="http://www.w3.org/2000/svg">
<path d="M14.2451 8.72559C14.8698 8.69398 15.4841 8.89572 15.9688 9.29102C16.4534 9.68642 16.7746 10.2479 16.8691 10.8662C16.9636 11.4846 16.825 12.1165 16.4805 12.6387L16.2109 13.0469L18.1445 14.9805C18.1469 14.9828 18.1491 14.9862 18.1504 14.9893C18.1515 14.9921 18.1523 14.995 18.1523 14.998C18.1523 15.0012 18.1516 15.0048 18.1504 15.0078C18.1491 15.0109 18.1469 15.0143 18.1445 15.0166L18.1426 15.0186C18.1404 15.0207 18.1376 15.0222 18.1348 15.0234C18.1317 15.0247 18.1283 15.0254 18.125 15.0254C18.1217 15.0254 18.1183 15.0247 18.1152 15.0234C18.1124 15.0222 18.1096 15.0207 18.1074 15.0186L18.1064 15.0176L16.5176 13.4316L16.1719 13.0859L15.7637 13.3555C15.2415 13.7 14.6096 13.8386 13.9912 13.7441C13.3729 13.6496 12.8114 13.3284 12.416 12.8438C12.0207 12.3591 11.819 11.7448 11.8506 11.1201C11.8822 10.4954 12.1446 9.90423 12.5869 9.46191C13.0292 9.0196 13.6204 8.75721 14.2451 8.72559ZM3.125 14.9746H10C10.0066 14.9746 10.0129 14.9777 10.0176 14.9824C10.0223 14.9871 10.0254 14.9934 10.0254 15C10.0254 15.0066 10.0223 15.0129 10.0176 15.0176C10.0129 15.0223 10.0066 15.0254 10 15.0254H3.125C3.11837 15.0254 3.11211 15.0223 3.10742 15.0176C3.10273 15.0129 3.09961 15.0066 3.09961 15L3.10742 14.9824C3.11211 14.9777 3.11837 14.9746 3.125 14.9746ZM14.8574 8.82227C14.3775 8.72689 13.8798 8.7766 13.4277 8.96387C12.9756 9.15119 12.5893 9.46812 12.3174 9.875C12.0454 10.282 11.9004 10.7605 11.9004 11.25C11.9004 11.9064 12.1608 12.5358 12.625 13C13.0892 13.4642 13.7186 13.7246 14.375 13.7246C14.8645 13.7246 15.343 13.5796 15.75 13.3076C16.1569 13.0357 16.4738 12.6494 16.6611 12.1973C16.8484 11.7452 16.8981 11.2475 16.8027 10.7676C16.7072 10.2875 16.4711 9.84613 16.125 9.5C15.7789 9.15387 15.3375 8.91776 14.8574 8.82227ZM3.125 9.97461H8.75C8.75663 9.97461 8.76289 9.97773 8.76758 9.98242C8.77227 9.98711 8.77539 9.99337 8.77539 10C8.77539 10.0066 8.77227 10.0129 8.76758 10.0176C8.76289 10.0223 8.75663 10.0254 8.75 10.0254H3.125C3.11837 10.0254 3.11211 10.0223 3.10742 10.0176C3.10273 10.0129 3.09961 10.0066 3.09961 10L3.10742 9.98242C3.11211 9.97773 3.11837 9.97461 3.125 9.97461ZM3.125 4.97461H16.875C16.8816 4.97461 16.8879 4.97773 16.8926 4.98242C16.8973 4.98711 16.9004 4.99337 16.9004 5C16.9004 5.00663 16.8973 5.01289 16.8926 5.01758C16.8879 5.02227 16.8816 5.02539 16.875 5.02539H3.125C3.11837 5.02539 3.11211 5.02227 3.10742 5.01758C3.10273 5.01289 3.09961 5.00663 3.09961 5C3.09961 4.99337 3.10273 4.98711 3.10742 4.98242L3.125 4.97461Z" stroke="#282529" stroke-width="1.2"/>
</svg>
