<svg width="20" height="20" viewBox="0 0 20 20" fill="none" xmlns="http://www.w3.org/2000/svg">
<path d="M17.126 16.2246C17.0472 16.2576 16.962 16.2754 16.875 16.2754H3.125C3.03799 16.2754 2.95276 16.2576 2.87402 16.2246H17.126ZM3.125 4.34961H7.29004L7.39551 4.3584C7.49859 4.37538 7.59696 4.41663 7.68164 4.47949V4.48047L9.84863 6.10547L10.0088 6.22461H16.875C16.962 6.22461 17.0472 6.24243 17.126 6.27539H10.0088L9.84863 6.39453L7.68164 8.01953C7.56838 8.10377 7.43121 8.15002 7.29004 8.15039H2.52539V15.875C2.49266 15.7965 2.47461 15.7117 2.47461 15.625V5C2.47461 4.91299 2.49243 4.82776 2.52539 4.74902V8.09961H7.49121L7.65137 7.98047L9.31836 6.73047L9.95898 6.25L9.31836 5.76953L7.65137 4.51953L7.49121 4.40039H2.87402C2.95276 4.36743 3.03799 4.34961 3.125 4.34961ZM17.4746 6.62402C17.5076 6.70276 17.5254 6.78799 17.5254 6.875V15.625C17.5254 15.7117 17.5073 15.7965 17.4746 15.875V6.62402Z" stroke="#282529" stroke-width="1.2"/>
</svg>
