<svg width="20" height="20" viewBox="0 0 20 20" fill="none" xmlns="http://www.w3.org/2000/svg">
<path d="M12.3711 11.7617C14.1288 12.585 15.4027 14.2763 15.6172 16.2754H15.5654C15.4854 15.5278 15.2578 14.8014 14.8887 14.1416C14.4213 13.3063 13.7469 12.6054 12.9307 12.1055L12.3711 11.7617ZM7.06934 12.1055C6.25318 12.6053 5.57874 13.3064 5.11133 14.1416C4.74211 14.8014 4.51468 15.5277 4.43457 16.2754H4.38281C4.59718 14.2769 5.8705 12.5863 7.62695 11.7637L7.06934 12.1055ZM12.3271 11.7412L12.0625 12.3887C11.8943 12.798 11.6086 13.1488 11.2412 13.3955C10.8742 13.642 10.4421 13.7733 10 13.7744C9.55819 13.7732 9.12657 13.6418 8.75977 13.3955C8.39249 13.1488 8.10661 12.7979 7.93848 12.3887L7.67285 11.7422C7.70236 11.7287 7.73097 11.7132 7.76074 11.7002L7.96875 12.2891C8.11675 12.7095 8.39212 13.0735 8.75586 13.3311C9.11964 13.5887 9.55425 13.7275 10 13.7275C10.4458 13.7275 10.8804 13.5887 11.2441 13.3311C11.6079 13.0735 11.8832 12.7095 12.0312 12.2891L12.2373 11.6992C12.2676 11.7125 12.2971 11.7275 12.3271 11.7412ZM10 3.72461C12.0132 3.72461 13.6692 5.31774 13.7705 7.30664L13.7754 7.5C13.7744 8.11906 13.621 8.72893 13.3301 9.27539C13.0391 9.82181 12.6186 10.2884 12.1055 10.6348L11.1943 11.25L12.2041 11.6836C12.2143 11.688 12.2242 11.6938 12.2344 11.6982L11.6406 11.5166C11.1184 11.3568 10.5703 11.2754 10 11.2754C9.44467 11.2738 8.89177 11.3544 8.36035 11.5156L7.77539 11.6934C7.78194 11.6905 7.78836 11.6874 7.79492 11.6846L8.80371 11.252L7.89551 10.6367C6.88743 9.95367 6.22461 8.79795 6.22461 7.5C6.22461 5.422 7.922 3.72461 10 3.72461ZM10 3.77539C7.9355 3.77539 6.27539 5.4355 6.27539 7.5C6.27539 9.5645 7.9355 11.2246 10 11.2246C12.0645 11.2246 13.7246 9.5645 13.7246 7.5C13.7246 5.4355 12.0645 3.77539 10 3.77539Z" stroke="#282529" stroke-width="1.2"/>
</svg>
