<svg width="16" height="17" viewBox="0 0 16 17" fill="none" xmlns="http://www.w3.org/2000/svg">
<path fill-rule="evenodd" clip-rule="evenodd" d="M7.80322 4.69519C7.9282 4.82021 7.99841 4.98975 7.99841 5.16652C7.99841 5.3433 7.9282 5.51284 7.80322 5.63786L4.94122 8.49986L7.80322 11.3619C7.92466 11.4876 7.99186 11.656 7.99034 11.8308C7.98882 12.0056 7.91871 12.1728 7.7951 12.2964C7.6715 12.42 7.50429 12.4901 7.32949 12.4916C7.15469 12.4932 6.98629 12.426 6.86056 12.3045L3.52722 8.97119C3.40224 8.84617 3.33203 8.67663 3.33203 8.49986C3.33203 8.32308 3.40224 8.15354 3.52722 8.02852L6.86056 4.69519C6.98557 4.57021 7.15511 4.5 7.33189 4.5C7.50867 4.5 7.6782 4.57021 7.80322 4.69519ZM11.8032 4.69519C11.9282 4.82021 11.9984 4.98975 11.9984 5.16652C11.9984 5.3433 11.9282 5.51284 11.8032 5.63786L8.94122 8.49986L11.8032 11.3619C11.9247 11.4876 11.9919 11.656 11.9903 11.8308C11.9888 12.0056 11.9187 12.1728 11.7951 12.2964C11.6715 12.42 11.5043 12.4901 11.3295 12.4916C11.1547 12.4932 10.9863 12.426 10.8606 12.3045L7.52722 8.97119C7.40224 8.84617 7.33203 8.67663 7.33203 8.49986C7.33203 8.32308 7.40224 8.15354 7.52722 8.02852L10.8606 4.69519C10.9856 4.57021 11.1551 4.5 11.3319 4.5C11.5087 4.5 11.6782 4.57021 11.8032 4.69519Z" fill="#282529"/>
</svg>
