<svg width="20" height="20" viewBox="0 0 20 20" fill="none" xmlns="http://www.w3.org/2000/svg">
<path d="M15.876 16.8496C15.7972 16.8826 15.712 16.9004 15.625 16.9004H3.75C3.66299 16.9004 3.57776 16.8826 3.49902 16.8496H15.876ZM3.15039 16.5C3.11766 16.4215 3.09961 16.3367 3.09961 16.25V4.375C3.09961 4.28799 3.11743 4.20276 3.15039 4.12402V16.5ZM16.25 9.97461C16.2566 9.97461 16.2629 9.97773 16.2676 9.98242C16.2723 9.98711 16.2754 9.99337 16.2754 10V16.25C16.2754 16.3367 16.2573 16.4215 16.2246 16.5V10C16.2246 9.99337 16.2277 9.98711 16.2324 9.98242C16.2371 9.97773 16.2434 9.97461 16.25 9.97461ZM15.3125 2.47461C15.8993 2.47461 16.462 2.70812 16.877 3.12305C17.2919 3.53797 17.5254 4.10071 17.5254 4.6875C17.5254 5.12509 17.3955 5.55315 17.1523 5.91699C16.9092 6.28077 16.5634 6.564 16.1592 6.73145C15.7549 6.8989 15.31 6.94279 14.8809 6.85742C14.4517 6.77205 14.0575 6.56137 13.748 6.25195C13.4386 5.94253 13.228 5.54832 13.1426 5.11914C13.0572 4.68996 13.1011 4.2451 13.2686 3.84082C13.436 3.43659 13.7192 3.09076 14.083 2.84766C14.4469 2.60454 14.8749 2.47461 15.3125 2.47461ZM16.1396 2.68945C15.7446 2.52592 15.31 2.483 14.8906 2.56641C14.4711 2.64985 14.0856 2.85577 13.7832 3.1582C13.4808 3.46063 13.2748 3.84614 13.1914 4.26562C13.108 4.68496 13.1509 5.11962 13.3145 5.51465C13.4781 5.90979 13.7557 6.24773 14.1113 6.48535C14.4669 6.72294 14.8848 6.84961 15.3125 6.84961C15.886 6.84961 16.4362 6.62234 16.8418 6.2168C17.2473 5.81125 17.4746 5.26103 17.4746 4.6875C17.4746 4.25983 17.3479 3.84193 17.1104 3.48633C16.8727 3.13071 16.5348 2.85313 16.1396 2.68945ZM3.75 3.72461H10C10.0066 3.72461 10.0129 3.72773 10.0176 3.73242C10.0223 3.73711 10.0254 3.74337 10.0254 3.75C10.0254 3.75663 10.0223 3.76289 10.0176 3.76758C10.0129 3.77227 10.0066 3.77539 10 3.77539H3.49902C3.57776 3.74243 3.66299 3.72461 3.75 3.72461Z" stroke="#282529" stroke-width="1.2"/>
</svg>
