<svg width="20" height="20" viewBox="0 0 20 20" fill="none" xmlns="http://www.w3.org/2000/svg">
<path d="M10 1.84961C10.533 1.84961 10.9723 2.23032 11.5518 2.78711L11.5527 2.78809C11.7031 2.93195 11.8745 3.09731 12.0459 3.24023C12.2118 3.37857 12.4167 3.52928 12.6406 3.62207V3.62305C12.8575 3.71323 13.1041 3.74677 13.3086 3.76367C13.5215 3.78125 13.7511 3.78406 13.9512 3.78711C14.7678 3.79966 15.3635 3.83619 15.7637 4.23633C16.1638 4.63647 16.2003 5.23222 16.2129 6.04883C16.2159 6.24893 16.2188 6.47853 16.2363 6.69141C16.2532 6.89497 16.2867 7.14028 16.376 7.35645V7.35742C16.4687 7.5826 16.621 7.78779 16.7598 7.9541C16.9027 8.12543 17.0683 8.29718 17.2119 8.44727V8.44824C17.7692 9.02909 18.1504 9.46699 18.1504 10C18.1504 10.533 17.7697 10.9723 17.2129 11.5518L17.2119 11.5527C17.068 11.7031 16.9027 11.8745 16.7598 12.0459C16.6214 12.2119 16.4697 12.4166 16.377 12.6406C16.2868 12.8575 16.2532 13.1041 16.2363 13.3086C16.2188 13.5215 16.2159 13.7511 16.2129 13.9512C16.2003 14.7678 16.1638 15.3635 15.7637 15.7637C15.3635 16.1638 14.7678 16.2003 13.9512 16.2129C13.7511 16.2159 13.5215 16.2188 13.3086 16.2363C13.1048 16.2532 12.8589 16.2864 12.6426 16.376C12.4174 16.4687 12.2122 16.621 12.0459 16.7598C11.8746 16.9027 11.7028 17.0683 11.5527 17.2119H11.5518C10.9709 17.7692 10.533 18.1504 10 18.1504C9.46699 18.1504 9.02771 17.7697 8.44824 17.2129L8.44727 17.2119L8.20898 16.9854C8.12579 16.9083 8.03985 16.8313 7.9541 16.7598C7.78789 16.6212 7.58277 16.4697 7.3584 16.377H7.35938C7.14252 16.2868 6.89586 16.2532 6.69141 16.2363C6.47853 16.2188 6.24893 16.2159 6.04883 16.2129C5.23222 16.2003 4.63647 16.1638 4.23633 15.7637C3.83619 15.3635 3.79966 14.7678 3.78711 13.9512C3.78406 13.7511 3.78125 13.5215 3.76367 13.3086C3.7468 13.1044 3.71297 12.8583 3.62305 12.6416C3.53029 12.4168 3.37874 12.212 3.24023 12.0459C3.0973 11.8746 2.93169 11.7028 2.78809 11.5527V11.5518L2.40625 11.1396C2.06399 10.7463 1.84961 10.3999 1.84961 10C1.84961 9.46699 2.23032 9.02771 2.78711 8.44824L2.78809 8.44727C2.93195 8.29691 3.09731 8.12553 3.24023 7.9541C3.37874 7.78797 3.52931 7.58263 3.62207 7.3584L3.62305 7.35938C3.71323 7.14252 3.74677 6.89586 3.76367 6.69141C3.78116 6.47951 3.78407 6.2512 3.78711 6.05176C3.80397 5.22929 3.83628 4.63638 4.23633 4.23633C4.63647 3.83619 5.23222 3.79966 6.04883 3.78711C6.24904 3.78406 6.47922 3.78127 6.69238 3.76367C6.89542 3.74691 7.14044 3.71264 7.35645 3.62305L7.35742 3.62402C7.5826 3.5313 7.78779 3.37896 7.9541 3.24023C8.12543 3.0973 8.29718 2.93169 8.44727 2.78809H8.44824C9.02909 2.23077 9.46699 1.84961 10 1.84961ZM10 1.90039C9.62945 1.90039 9.31196 2.11141 9.11523 2.26074C8.89469 2.4282 8.6707 2.64385 8.48242 2.82422C8.12583 3.16583 7.83339 3.43894 7.51562 3.60547L7.37695 3.66992C7.11312 3.7787 6.80858 3.81386 6.44043 3.82812L6.0498 3.83789C5.78404 3.84167 5.46489 3.84506 5.17969 3.88477C4.95036 3.9167 4.63446 3.98397 4.37891 4.17969L4.27344 4.27148C4.00331 4.54074 3.92105 4.91902 3.88477 5.18066C3.86497 5.32358 3.85402 5.47541 3.84766 5.62402L3.83789 6.0498C3.82973 6.60077 3.81501 7.02507 3.66992 7.37695C3.51518 7.75057 3.21182 8.0784 2.82422 8.48145C2.64378 8.66907 2.42866 8.8929 2.26074 9.11426C2.13012 9.28645 1.95176 9.55155 1.90918 9.86328L1.90039 10L1.90918 10.1367C1.95168 10.4482 2.13012 10.7127 2.26074 10.8848C2.4282 11.1053 2.64385 11.3293 2.82422 11.5176C3.16583 11.8742 3.43894 12.1666 3.60547 12.4844L3.66992 12.623C3.7787 12.8869 3.81386 13.1914 3.82812 13.5596L3.83789 13.9502C3.84167 14.216 3.84506 14.5351 3.88477 14.8203C3.92126 15.0824 4.00366 15.4577 4.27148 15.7266C4.54074 15.9967 4.91902 16.079 5.18066 16.1152C5.32358 16.135 5.47541 16.146 5.62402 16.1523L6.0498 16.1621C6.60059 16.1703 7.02514 16.1841 7.37695 16.3291V16.3301C7.75057 16.4848 8.0784 16.7882 8.48145 17.1758C8.66907 17.3562 8.8929 17.5713 9.11426 17.7393C9.31111 17.8886 9.62941 18.0996 10 18.0996C10.3706 18.0996 10.688 17.8886 10.8848 17.7393C11.1053 17.5718 11.3293 17.3562 11.5176 17.1758C11.9251 16.7854 12.2495 16.4848 12.623 16.3301L12.6221 16.3291C12.886 16.2202 13.1912 16.1861 13.5596 16.1719L13.9502 16.1621C14.216 16.1583 14.5351 16.1549 14.8203 16.1152C15.0824 16.0787 15.4577 15.9963 15.7266 15.7285C15.9967 15.4593 16.079 15.081 16.1152 14.8193C16.135 14.6764 16.146 14.5246 16.1523 14.376L16.1621 13.9502C16.1703 13.3992 16.185 12.9749 16.3301 12.623C16.4847 12.2497 16.7846 11.9249 17.1748 11.5176L17.1758 11.5186C17.3562 11.3309 17.5713 11.1071 17.7393 10.8857C17.8886 10.6889 18.0996 10.3706 18.0996 10C18.0996 9.62944 17.8886 9.31196 17.7393 9.11523C17.5718 8.89469 17.3562 8.6707 17.1758 8.48242C16.7854 8.07488 16.4848 7.75047 16.3301 7.37695C16.2213 7.11312 16.1861 6.80858 16.1719 6.44043L16.1621 6.0498C16.1583 5.78404 16.1549 5.46489 16.1152 5.17969C16.0833 4.95036 16.016 4.63446 15.8203 4.37891L15.7285 4.27344L15.6221 4.18066C15.3658 3.98359 15.0482 3.91651 14.8193 3.88477C14.6764 3.86497 14.5246 3.85402 14.376 3.84766L13.9502 3.83789C13.3988 3.82972 12.9741 3.81533 12.6221 3.66992H12.623C12.2494 3.51518 11.9216 3.21182 11.5186 2.82422C11.3309 2.64378 11.1071 2.42866 10.8857 2.26074C10.7135 2.13012 10.4485 1.95176 10.1367 1.90918L10 1.90039ZM10 13.7246C10.0895 13.7246 10.175 13.7609 10.2383 13.8242C10.3016 13.8875 10.3379 13.973 10.3379 14.0625C10.3379 14.1292 10.3174 14.1945 10.2803 14.25C10.2432 14.3054 10.1905 14.3485 10.1289 14.374C10.0674 14.3995 9.99987 14.4065 9.93457 14.3936C9.86911 14.3805 9.80892 14.348 9.76172 14.3008C9.71452 14.2536 9.68197 14.1934 9.66895 14.1279C9.65604 14.0626 9.66302 13.9951 9.68848 13.9336C9.714 13.872 9.75707 13.8193 9.8125 13.7822C9.868 13.7451 9.93325 13.7246 10 13.7246ZM10 6.22461C11.453 6.22461 12.5254 7.27595 12.5254 8.4375C12.5254 9.45696 11.7076 10.3848 10.5166 10.6035L10.0254 10.6943V11.25C10.0254 11.2566 10.0223 11.2629 10.0176 11.2676C10.0129 11.2723 10.0066 11.2754 10 11.2754C9.99337 11.2754 9.98711 11.2723 9.98242 11.2676C9.97773 11.2629 9.97461 11.2566 9.97461 11.25V10.625C9.97461 10.6184 9.97773 10.6121 9.98242 10.6074C9.98711 10.6027 9.99337 10.5996 10 10.5996C11.2584 10.5996 12.4746 9.72559 12.4746 8.4375C12.4746 7.14941 11.2584 6.27539 10 6.27539C8.74159 6.27539 7.52539 7.14941 7.52539 8.4375V8.75C7.52539 8.75663 7.52227 8.76289 7.51758 8.76758C7.51289 8.77227 7.50663 8.77539 7.5 8.77539C7.49337 8.77539 7.48711 8.77227 7.48242 8.76758C7.47773 8.76289 7.47461 8.75663 7.47461 8.75V8.4375C7.47461 7.27595 8.54695 6.22461 10 6.22461Z" stroke="#282529" stroke-width="1.2"/>
</svg>
