<svg width="16" height="16" viewBox="0 0 16 16" fill="none" xmlns="http://www.w3.org/2000/svg">
<path d="M6.86975 1.55029C8.27051 1.51846 9.62995 2.02844 10.6647 2.97314C11.6993 3.91778 12.3299 5.22483 12.4254 6.62256C12.5208 8.02034 12.074 9.40148 11.1774 10.478L11.1403 10.522L11.1813 10.562L14.3102 13.6909C14.3508 13.7316 14.3829 13.7804 14.4049 13.8335C14.4268 13.8865 14.4381 13.9431 14.4381 14.0005C14.4381 14.058 14.4269 14.1153 14.4049 14.1685C14.3829 14.2214 14.3507 14.2695 14.3102 14.3101C14.2696 14.3506 14.2216 14.3828 14.1686 14.4048C14.1155 14.4268 14.0581 14.438 14.0006 14.438C13.9433 14.438 13.8866 14.4267 13.8336 14.4048C13.7805 14.3828 13.7317 14.3507 13.691 14.3101L10.5621 11.1812L10.5221 11.1401L10.4781 11.1772C9.4016 12.0739 8.02046 12.5207 6.62268 12.4253C5.22495 12.3298 3.9179 11.6992 2.97327 10.6646C2.02856 9.62983 1.51858 8.27038 1.55042 6.86963C1.58234 5.469 2.15351 4.1347 3.14417 3.14404C4.13482 2.15339 5.46912 1.58222 6.86975 1.55029ZM7.89124 2.52588C7.0062 2.34983 6.0882 2.44032 5.25452 2.78564C4.42095 3.13098 3.70892 3.71609 3.20764 4.46631C2.70638 5.21655 2.43814 6.0982 2.43811 7.00049C2.43945 8.21004 2.92076 9.36978 3.776 10.2251C4.63131 11.0804 5.79102 11.5616 7.00061 11.563C7.90299 11.563 8.78547 11.2958 9.53577 10.7944C10.286 10.2931 10.8711 9.58025 11.2164 8.74658C11.5617 7.91302 11.6512 6.99574 11.4752 6.11084C11.2992 5.22596 10.8651 4.41293 10.2272 3.7749C9.58919 3.13692 8.77612 2.70197 7.89124 2.52588Z" fill="#7C7C7C" stroke="#7C7C7C" stroke-width="0.125"/>
</svg>
