<svg width="20" height="20" viewBox="0 0 20 20" fill="none" xmlns="http://www.w3.org/2000/svg">
<mask id="path-1-inside-1_310_1451" fill="white">
<path d="M10.0006 6.87477C9.17181 6.87477 8.37695 7.20401 7.7909 7.79006C7.20485 8.37611 6.87561 9.17096 6.87561 9.99977C6.87561 10.8286 7.20485 11.6234 7.7909 12.2095C8.37695 12.7955 9.17181 13.1248 10.0006 13.1248C10.8294 13.1248 11.6243 12.7955 12.2103 12.2095C12.7964 11.6234 13.1256 10.8286 13.1256 9.99977C13.1256 9.17096 12.7964 8.37611 12.2103 7.79006C11.6243 7.20401 10.8294 6.87477 10.0006 6.87477ZM8.12561 9.99977C8.12561 9.50248 8.32315 9.02557 8.67478 8.67394C9.02641 8.32231 9.50333 8.12477 10.0006 8.12477C10.4979 8.12477 10.9748 8.32231 11.3264 8.67394C11.6781 9.02557 11.8756 9.50248 11.8756 9.99977C11.8756 10.497 11.6781 10.974 11.3264 11.3256C10.9748 11.6772 10.4979 11.8748 10.0006 11.8748C9.50333 11.8748 9.02641 11.6772 8.67478 11.3256C8.32315 10.974 8.12561 10.497 8.12561 9.99977ZM8.02561 18.5173C8.67248 18.6716 9.33561 18.7498 10.0006 18.7498C10.665 18.749 11.327 18.6703 11.9731 18.5154C12.1587 18.4715 12.3261 18.3713 12.4526 18.2285C12.579 18.0858 12.6582 17.9074 12.6794 17.7179L12.8256 16.3866C12.8396 16.2414 12.888 16.1015 12.9668 15.9786C13.0456 15.8558 13.1525 15.7535 13.2787 15.6801C13.4049 15.6068 13.5468 15.5647 13.6925 15.5571C13.8383 15.5495 13.9837 15.5768 14.1169 15.6366L15.3387 16.1716C15.5136 16.2488 15.7082 16.2695 15.8954 16.2309C16.0826 16.1922 16.2531 16.0961 16.3831 15.956C17.2859 14.9832 17.9598 13.8209 18.3556 12.5541C18.4122 12.3709 18.4104 12.1746 18.3505 11.9924C18.2906 11.8102 18.1755 11.6512 18.0212 11.5373L16.9406 10.7404C16.8225 10.6545 16.7263 10.5418 16.6601 10.4115C16.5939 10.2813 16.5595 10.1373 16.5597 9.99116C16.5599 9.84507 16.5947 9.7011 16.6612 9.57104C16.7277 9.44098 16.8241 9.32852 16.9425 9.24289L18.0175 8.44914C18.1731 8.33588 18.2892 8.17662 18.3494 7.99383C18.4096 7.81104 18.4109 7.61396 18.3531 7.43039C17.9581 6.16315 17.2838 5.00065 16.38 4.02852C16.2493 3.88879 16.0785 3.79302 15.8911 3.75441C15.7038 3.71579 15.509 3.73622 15.3337 3.81289L14.1175 4.34789C13.9842 4.406 13.8391 4.43193 13.6939 4.42358C13.5487 4.41522 13.4075 4.37283 13.2818 4.29982C13.156 4.2268 13.0492 4.12522 12.9699 4.00328C12.8907 3.88134 12.8412 3.74247 12.8256 3.59789L12.6781 2.27289C12.6571 2.08118 12.5767 1.90082 12.4482 1.75705C12.3197 1.61327 12.1494 1.51326 11.9612 1.47102C11.3195 1.32705 10.6645 1.25101 10.0069 1.24414C9.34539 1.252 8.68649 1.32802 8.04061 1.47102C7.85229 1.51229 7.68173 1.61175 7.55307 1.75533C7.42442 1.89891 7.34418 2.07932 7.32373 2.27102L7.17561 3.59727C7.15943 3.74206 7.10957 3.88106 7.03001 4.00313C6.95046 4.12519 6.84343 4.22693 6.71749 4.3002C6.59155 4.37347 6.4502 4.41623 6.30477 4.42505C6.15934 4.43387 6.01386 4.40852 5.87998 4.35102L4.66374 3.81539C4.4883 3.74058 4.29412 3.72145 4.10745 3.76057C3.92078 3.79969 3.75062 3.89518 3.61999 4.03414C2.71609 5.00727 2.04129 6.17024 1.64499 7.43789C1.58878 7.62103 1.59083 7.8171 1.65083 7.99902C1.71084 8.18095 1.82585 8.33976 1.97999 8.45352L3.05811 9.24852C3.17555 9.33493 3.27103 9.44776 3.33684 9.57788C3.40264 9.708 3.43692 9.85177 3.43692 9.99758C3.43692 10.1434 3.40264 10.2872 3.33684 10.4173C3.27103 10.5474 3.17555 10.6602 3.05811 10.7466L1.97999 11.5435C1.82534 11.6576 1.71005 11.8169 1.65013 11.9995C1.59021 12.1821 1.58863 12.3788 1.64561 12.5623C2.04158 13.8308 2.7164 14.9947 3.62061 15.9685C3.70661 16.0609 3.81084 16.1344 3.9267 16.1844C4.04256 16.2344 4.16754 16.2599 4.29374 16.2591C4.42061 16.2591 4.54624 16.2329 4.66311 16.1823L5.88499 15.6454C6.01826 15.5878 6.16318 15.5623 6.3081 15.5709C6.45302 15.5795 6.59391 15.622 6.71943 15.6949C6.84496 15.7679 6.95162 15.8692 7.03084 15.9909C7.11007 16.1125 7.15965 16.2511 7.17561 16.3954L7.32248 17.7241C7.34416 17.9126 7.42325 18.0898 7.54902 18.2318C7.67479 18.3738 7.84117 18.473 8.02561 18.5173ZM11.4637 17.3516C10.4995 17.5501 9.50488 17.5501 8.54061 17.3516L8.41873 16.2641C8.35916 15.7321 8.10547 15.2408 7.70623 14.8841C7.39381 14.6086 7.00977 14.4272 6.59855 14.3609C6.18732 14.2945 5.76571 14.3459 5.38249 14.5091L4.37874 14.9466C3.73075 14.2055 3.23242 13.346 2.91124 12.4154L3.80124 11.7579C4.0762 11.5553 4.29971 11.2909 4.45374 10.9861C4.60778 10.6812 4.68803 10.3444 4.68803 10.0029C4.68803 9.66134 4.60778 9.32457 4.45374 9.01973C4.29971 8.71489 4.0762 8.4505 3.80124 8.24789L2.91311 7.59164C3.23458 6.66195 3.73291 5.80326 4.38061 5.06289L5.38061 5.50039C5.65624 5.6221 5.95431 5.6847 6.25561 5.68414C6.79217 5.68246 7.30939 5.48363 7.70891 5.12548C8.10844 4.76732 8.36239 4.27482 8.42248 3.74164L8.54373 2.64977C9.02748 2.55602 9.51873 2.50602 10.0106 2.49977C10.4994 2.50602 10.9869 2.55602 11.4669 2.64977L11.5831 3.73727C11.641 4.27079 11.8941 4.76408 12.2937 5.12227C12.6067 5.39885 12.9917 5.58091 13.4041 5.6473C13.8164 5.71368 14.2392 5.66165 14.6231 5.49727L15.6231 5.05977C16.2713 5.80021 16.7701 6.65914 17.0919 7.58914L16.2025 8.24289C15.9261 8.4448 15.7013 8.70908 15.5463 9.01426C15.3913 9.31943 15.3105 9.65687 15.3105 9.99914C15.3105 10.3414 15.3913 10.6789 15.5463 10.984C15.7013 11.2892 15.9261 11.5535 16.2025 11.7554L17.0912 12.4116C16.7686 13.3396 16.2711 14.1972 15.6256 14.9379L14.6256 14.5004C14.3127 14.3611 13.9712 14.2979 13.6292 14.3159C13.2872 14.3339 12.9542 14.4325 12.6576 14.6038C12.361 14.7751 12.1091 15.0141 11.9226 15.3014C11.7361 15.5887 11.6202 15.916 11.5844 16.2566L11.4637 17.3516Z"/>
</mask>
<path d="M10.0006 6.87477C9.17181 6.87477 8.37695 7.20401 7.7909 7.79006C7.20485 8.37611 6.87561 9.17096 6.87561 9.99977C6.87561 10.8286 7.20485 11.6234 7.7909 12.2095C8.37695 12.7955 9.17181 13.1248 10.0006 13.1248C10.8294 13.1248 11.6243 12.7955 12.2103 12.2095C12.7964 11.6234 13.1256 10.8286 13.1256 9.99977C13.1256 9.17096 12.7964 8.37611 12.2103 7.79006C11.6243 7.20401 10.8294 6.87477 10.0006 6.87477ZM8.12561 9.99977C8.12561 9.50248 8.32315 9.02557 8.67478 8.67394C9.02641 8.32231 9.50333 8.12477 10.0006 8.12477C10.4979 8.12477 10.9748 8.32231 11.3264 8.67394C11.6781 9.02557 11.8756 9.50248 11.8756 9.99977C11.8756 10.497 11.6781 10.974 11.3264 11.3256C10.9748 11.6772 10.4979 11.8748 10.0006 11.8748C9.50333 11.8748 9.02641 11.6772 8.67478 11.3256C8.32315 10.974 8.12561 10.497 8.12561 9.99977ZM8.02561 18.5173C8.67248 18.6716 9.33561 18.7498 10.0006 18.7498C10.665 18.749 11.327 18.6703 11.9731 18.5154C12.1587 18.4715 12.3261 18.3713 12.4526 18.2285C12.579 18.0858 12.6582 17.9074 12.6794 17.7179L12.8256 16.3866C12.8396 16.2414 12.888 16.1015 12.9668 15.9786C13.0456 15.8558 13.1525 15.7535 13.2787 15.6801C13.4049 15.6068 13.5468 15.5647 13.6925 15.5571C13.8383 15.5495 13.9837 15.5768 14.1169 15.6366L15.3387 16.1716C15.5136 16.2488 15.7082 16.2695 15.8954 16.2309C16.0826 16.1922 16.2531 16.0961 16.3831 15.956C17.2859 14.9832 17.9598 13.8209 18.3556 12.5541C18.4122 12.3709 18.4104 12.1746 18.3505 11.9924C18.2906 11.8102 18.1755 11.6512 18.0212 11.5373L16.9406 10.7404C16.8225 10.6545 16.7263 10.5418 16.6601 10.4115C16.5939 10.2813 16.5595 10.1373 16.5597 9.99116C16.5599 9.84507 16.5947 9.7011 16.6612 9.57104C16.7277 9.44098 16.8241 9.32852 16.9425 9.24289L18.0175 8.44914C18.1731 8.33588 18.2892 8.17662 18.3494 7.99383C18.4096 7.81104 18.4109 7.61396 18.3531 7.43039C17.9581 6.16315 17.2838 5.00065 16.38 4.02852C16.2493 3.88879 16.0785 3.79302 15.8911 3.75441C15.7038 3.71579 15.509 3.73622 15.3337 3.81289L14.1175 4.34789C13.9842 4.406 13.8391 4.43193 13.6939 4.42358C13.5487 4.41522 13.4075 4.37283 13.2818 4.29982C13.156 4.2268 13.0492 4.12522 12.9699 4.00328C12.8907 3.88134 12.8412 3.74247 12.8256 3.59789L12.6781 2.27289C12.6571 2.08118 12.5767 1.90082 12.4482 1.75705C12.3197 1.61327 12.1494 1.51326 11.9612 1.47102C11.3195 1.32705 10.6645 1.25101 10.0069 1.24414C9.34539 1.252 8.68649 1.32802 8.04061 1.47102C7.85229 1.51229 7.68173 1.61175 7.55307 1.75533C7.42442 1.89891 7.34418 2.07932 7.32373 2.27102L7.17561 3.59727C7.15943 3.74206 7.10957 3.88106 7.03001 4.00313C6.95046 4.12519 6.84343 4.22693 6.71749 4.3002C6.59155 4.37347 6.4502 4.41623 6.30477 4.42505C6.15934 4.43387 6.01386 4.40852 5.87998 4.35102L4.66374 3.81539C4.4883 3.74058 4.29412 3.72145 4.10745 3.76057C3.92078 3.79969 3.75062 3.89518 3.61999 4.03414C2.71609 5.00727 2.04129 6.17024 1.64499 7.43789C1.58878 7.62103 1.59083 7.8171 1.65083 7.99902C1.71084 8.18095 1.82585 8.33976 1.97999 8.45352L3.05811 9.24852C3.17555 9.33493 3.27103 9.44776 3.33684 9.57788C3.40264 9.708 3.43692 9.85177 3.43692 9.99758C3.43692 10.1434 3.40264 10.2872 3.33684 10.4173C3.27103 10.5474 3.17555 10.6602 3.05811 10.7466L1.97999 11.5435C1.82534 11.6576 1.71005 11.8169 1.65013 11.9995C1.59021 12.1821 1.58863 12.3788 1.64561 12.5623C2.04158 13.8308 2.7164 14.9947 3.62061 15.9685C3.70661 16.0609 3.81084 16.1344 3.9267 16.1844C4.04256 16.2344 4.16754 16.2599 4.29374 16.2591C4.42061 16.2591 4.54624 16.2329 4.66311 16.1823L5.88499 15.6454C6.01826 15.5878 6.16318 15.5623 6.3081 15.5709C6.45302 15.5795 6.59391 15.622 6.71943 15.6949C6.84496 15.7679 6.95162 15.8692 7.03084 15.9909C7.11007 16.1125 7.15965 16.2511 7.17561 16.3954L7.32248 17.7241C7.34416 17.9126 7.42325 18.0898 7.54902 18.2318C7.67479 18.3738 7.84117 18.473 8.02561 18.5173ZM11.4637 17.3516C10.4995 17.5501 9.50488 17.5501 8.54061 17.3516L8.41873 16.2641C8.35916 15.7321 8.10547 15.2408 7.70623 14.8841C7.39381 14.6086 7.00977 14.4272 6.59855 14.3609C6.18732 14.2945 5.76571 14.3459 5.38249 14.5091L4.37874 14.9466C3.73075 14.2055 3.23242 13.346 2.91124 12.4154L3.80124 11.7579C4.0762 11.5553 4.29971 11.2909 4.45374 10.9861C4.60778 10.6812 4.68803 10.3444 4.68803 10.0029C4.68803 9.66134 4.60778 9.32457 4.45374 9.01973C4.29971 8.71489 4.0762 8.4505 3.80124 8.24789L2.91311 7.59164C3.23458 6.66195 3.73291 5.80326 4.38061 5.06289L5.38061 5.50039C5.65624 5.6221 5.95431 5.6847 6.25561 5.68414C6.79217 5.68246 7.30939 5.48363 7.70891 5.12548C8.10844 4.76732 8.36239 4.27482 8.42248 3.74164L8.54373 2.64977C9.02748 2.55602 9.51873 2.50602 10.0106 2.49977C10.4994 2.50602 10.9869 2.55602 11.4669 2.64977L11.5831 3.73727C11.641 4.27079 11.8941 4.76408 12.2937 5.12227C12.6067 5.39885 12.9917 5.58091 13.4041 5.6473C13.8164 5.71368 14.2392 5.66165 14.6231 5.49727L15.6231 5.05977C16.2713 5.80021 16.7701 6.65914 17.0919 7.58914L16.2025 8.24289C15.9261 8.4448 15.7013 8.70908 15.5463 9.01426C15.3913 9.31943 15.3105 9.65687 15.3105 9.99914C15.3105 10.3414 15.3913 10.6789 15.5463 10.984C15.7013 11.2892 15.9261 11.5535 16.2025 11.7554L17.0912 12.4116C16.7686 13.3396 16.2711 14.1972 15.6256 14.9379L14.6256 14.5004C14.3127 14.3611 13.9712 14.2979 13.6292 14.3159C13.2872 14.3339 12.9542 14.4325 12.6576 14.6038C12.361 14.7751 12.1091 15.0141 11.9226 15.3014C11.7361 15.5887 11.6202 15.916 11.5844 16.2566L11.4637 17.3516Z" stroke="#282529" stroke-width="2.4" mask="url(#path-1-inside-1_310_1451)"/>
</svg>
