<svg width="20" height="20" viewBox="0 0 20 20" fill="none" xmlns="http://www.w3.org/2000/svg">
<path d="M8.125 16.8496C8.13163 16.8496 8.13789 16.8527 8.14258 16.8574C8.14727 16.8621 8.15039 16.8684 8.15039 16.875C8.15039 16.8816 8.14727 16.8879 8.14258 16.8926C8.13789 16.8973 8.13163 16.9004 8.125 16.9004H3.75C3.66299 16.9004 3.57776 16.8826 3.49902 16.8496H8.125ZM3.15039 16.5C3.11766 16.4215 3.09961 16.3367 3.09961 16.25V3.75C3.09961 3.66299 3.11743 3.57776 3.15039 3.49902V16.5ZM13.75 6.84961C13.7567 6.84961 13.7628 6.85267 13.7676 6.85742L16.8926 9.98242H16.8936C16.8957 9.98464 16.8972 9.9874 16.8984 9.99023C16.8997 9.99327 16.9004 9.99671 16.9004 10C16.9004 10.0033 16.8997 10.0067 16.8984 10.0098C16.8972 10.0126 16.8957 10.0154 16.8936 10.0176H16.8926L13.7676 13.1426C13.7628 13.1473 13.7567 13.1504 13.75 13.1504C13.7433 13.1504 13.7372 13.1473 13.7324 13.1426C13.7277 13.1378 13.7246 13.1317 13.7246 13.125C13.7246 13.1183 13.7277 13.1122 13.7324 13.1074L15.791 11.0498L16.8154 10.0254H8.125C8.11837 10.0254 8.11211 10.0223 8.10742 10.0176C8.10273 10.0129 8.09961 10.0066 8.09961 10C8.09961 9.99337 8.10273 9.98711 8.10742 9.98242C8.11211 9.97773 8.11837 9.97461 8.125 9.97461H16.8154L15.791 8.9502L13.7324 6.89258C13.7277 6.88783 13.7246 6.88172 13.7246 6.875C13.7246 6.86828 13.7277 6.86217 13.7324 6.85742C13.7372 6.85267 13.7433 6.84961 13.75 6.84961ZM3.75 3.09961H8.125C8.13163 3.09961 8.13789 3.10273 8.14258 3.10742C8.14727 3.11211 8.15039 3.11837 8.15039 3.125C8.15039 3.13163 8.14727 3.13789 8.14258 3.14258C8.13789 3.14727 8.13163 3.15039 8.125 3.15039H3.49902C3.57776 3.11743 3.66299 3.09961 3.75 3.09961Z" stroke="#282529" stroke-width="1.2"/>
</svg>
