<svg width="76" height="16" viewBox="0 0 76 16" fill="none" xmlns="http://www.w3.org/2000/svg">
<path d="M2.11518 0.0056165L0.0125866 0.00561631L0.0125856 12.0748C0.798422 12.0041 1.48933 11.8256 2.11518 11.5688L2.11518 0.0056165Z" fill="#7A58D0"/>
<path d="M4.57639 0.00371864L2.47379 0.00371845V0L2.47379 11.4212C3.25084 11.0568 3.93119 10.5753 4.57639 10.0324L4.57639 0.00371864Z" fill="#7A58D0"/>
<path d="M7.04282 7.80837L7.04282 1.91197e-07L4.94022 0L4.94022 9.72017C5.27601 9.42562 5.60651 9.11996 5.93878 8.81059C6.29918 8.47528 6.66309 8.13812 7.04106 7.80837H7.04282Z" fill="#7A58D0"/>
<path d="M0.212146 12.6325C0.627525 13.1071 1.18196 13.4451 1.79522 13.5282C2.02341 13.5596 2.25695 13.5596 2.48871 13.5245C5.89553 13.0185 7.85654 8.66931 11.759 7.57048V5.69415C11.6966 5.70708 11.6377 5.72185 11.5825 5.73478C6.48383 7.00352 5.29474 11.9529 0 12.3887L0.212146 12.6325Z" fill="#7A58D0"/>
<path d="M4.14193 15.4415C5.09797 15.9788 6.21841 16.1517 7.26736 15.858C7.27451 15.8561 7.28166 15.8542 7.28881 15.8524C8.61475 15.4713 9.49216 14.1922 10.5769 13.3482C10.9486 13.034 11.331 12.7403 11.7384 12.4782C11.7545 12.4689 11.7688 12.4596 11.7849 12.4503V10.4109C10.559 10.9537 9.53683 11.9483 8.55221 12.8463L8.52719 12.8704C7.05471 14.1997 5.95393 15.5456 3.84172 15.2742L4.14372 15.4434L4.14193 15.4415Z" fill="#7A58D0"/>
<path d="M6.25472 14.4273C8.15813 13.04 9.63221 11.0728 11.7968 10.0789V7.92525C11.7718 7.93271 11.7467 7.94017 11.7235 7.94762C9.85045 8.58533 8.49445 9.78244 7.11341 11.0691L7.08836 11.0914C5.78066 12.2923 4.24755 13.7523 2.4318 14.004C2.27974 14.0283 2.03645 14.0394 1.82893 14.0655C2.54629 14.6212 3.40855 14.9587 4.30122 14.9718C4.99353 14.983 5.66796 14.8412 6.25293 14.4273H6.25472Z" fill="#7A58D0"/>
<path d="M20.6982 0.0104416V13.4559H27.8201V14.5097H18.5531V0.0104416H20.6982Z" fill="#282628"/>
<path d="M61.7615 14.508L61.7615 0.00870133H63.864L63.8641 14.508H61.7615Z" fill="#282628"/>
<path d="M33.7339 3.74711C30.5848 3.74711 28.0101 5.91271 28.0101 9.29571C28.0101 12.6787 30.584 14.8443 33.7339 14.8443C36.8837 14.8443 39.4576 12.6585 39.4576 9.29571C39.4576 5.93292 36.8837 3.74711 33.7339 3.74711ZM33.7339 13.7918C31.3269 13.7918 30.2254 12.0676 30.2254 9.29409C30.2254 6.5206 31.3276 4.77615 33.7339 4.77615C36.1401 4.77615 37.2431 6.50766 37.2431 9.29409C37.2431 12.0805 36.1409 13.7918 33.7339 13.7918Z" fill="#282628"/>
<path d="M45.3581 8.92758L48.786 4.13914H47.0298L44.468 7.739L41.8899 4.13914H39.2194L43.0636 9.50766L39.4936 14.5073H41.232L43.9522 10.7157L46.6724 14.5073H49.343L45.3581 8.9284V8.92758Z" fill="#282628"/>
<path d="M58.3502 4.07237V4.49707C57.8136 4.18805 56.7999 3.7763 55.1302 3.7763C51.4534 3.7763 49.2511 5.75257 49.2511 9.33541C49.2511 12.5882 50.9958 14.8735 53.8978 14.8735C56.5414 14.8735 57.7082 13.2548 58.3502 12.064V14.4828H60.1534V4.07237H58.3502ZM57.9831 10.5084C57.4638 12.6359 55.573 13.8308 53.958 13.8308C51.7673 13.8308 51.3074 11.3861 51.3074 9.33541C51.3074 7.28472 51.9946 4.81904 55.2692 4.81904C56.6562 4.81904 57.9378 5.33272 58.3502 5.70484C58.3431 7.18603 58.3986 8.80555 57.9831 10.5084Z" fill="#282628"/>
<path d="M74.1967 4.07237V4.49707C73.6602 4.18805 72.6465 3.7763 70.9768 3.7763C67.3 3.7763 65.0976 5.75257 65.0976 9.33541C65.0976 12.5882 66.8423 14.8735 69.7444 14.8735C72.388 14.8735 73.5548 13.2548 74.1967 12.064V14.4828H76V4.07237H74.1967ZM73.8289 10.5084C73.3096 12.6359 71.4188 13.8308 69.8038 13.8308C67.6132 13.8308 67.1532 11.3861 67.1532 9.33541C67.1532 7.28472 67.8404 4.81904 71.115 4.81904C72.502 4.81904 73.7836 5.33272 74.196 5.70484C74.1889 7.18603 74.2444 8.80555 73.8289 10.5084Z" fill="#282628"/>
</svg>
