<svg width="20" height="20" viewBox="0 0 20 20" fill="none" xmlns="http://www.w3.org/2000/svg">
<g clip-path="url(#clip0_310_1435)">
<path d="M17.7765 8.33328H17.2209V4.99995C17.2209 4.8526 17.1624 4.7113 17.0582 4.60711C16.954 4.50292 16.8127 4.44439 16.6654 4.44439H3.33202C3.20047 4.44654 3.07243 4.40193 2.9707 4.3185C2.86896 4.23508 2.80013 4.11826 2.77647 3.98883V3.78883C2.80013 3.65941 2.86896 3.54259 2.9707 3.45917C3.07243 3.37574 3.20047 3.33113 3.33202 3.33328H16.432C16.5794 3.33328 16.7207 3.27475 16.8249 3.17056C16.929 3.06637 16.9876 2.92507 16.9876 2.77772C16.9876 2.63038 16.929 2.48907 16.8249 2.38489C16.7207 2.2807 16.5794 2.22217 16.432 2.22217H3.33202C2.89 2.22217 2.46607 2.39776 2.15351 2.71032C1.84095 3.02288 1.66536 3.44681 1.66536 3.88883C1.66135 3.95544 1.66135 4.02223 1.66536 4.08883V15.5166C1.66754 15.8157 1.72862 16.1115 1.8451 16.387C1.96159 16.6625 2.13121 16.9124 2.34427 17.1224C2.55733 17.3323 2.80966 17.4983 3.08685 17.6107C3.36405 17.7232 3.66068 17.7799 3.9598 17.7777H16.6654C16.8127 17.7777 16.954 17.7192 17.0582 17.615C17.1624 17.5108 17.2209 17.3695 17.2209 17.2222V13.8888H17.7765C17.9238 13.8888 18.0651 13.8303 18.1693 13.7261C18.2735 13.6219 18.332 13.4806 18.332 13.3333V8.88883C18.332 8.74149 18.2735 8.60018 18.1693 8.496C18.0651 8.39181 17.9238 8.33328 17.7765 8.33328ZM16.1098 16.6666H3.9598C3.6508 16.6696 3.35312 16.5504 3.13152 16.3351C2.90991 16.1197 2.78231 15.8256 2.77647 15.5166V5.48883C2.95678 5.54119 3.14444 5.56371 3.33202 5.5555H16.1098V8.33328H12.2209C11.4842 8.33328 10.7777 8.62594 10.2567 9.14687C9.73579 9.66781 9.44313 10.3743 9.44313 11.1111C9.44313 11.8478 9.73579 12.5543 10.2567 13.0752C10.7777 13.5962 11.4842 13.8888 12.2209 13.8888H16.1098V16.6666ZM17.2209 12.7777H12.2209C11.7789 12.7777 11.355 12.6021 11.0424 12.2896C10.7298 11.977 10.5542 11.5531 10.5542 11.1111C10.5542 10.669 10.7298 10.2451 11.0424 9.93255C11.355 9.61999 11.7789 9.44439 12.2209 9.44439H17.2209V12.7777Z" fill="#282529"/>
<path d="M12.7821 11.9445C13.2423 11.9445 13.6154 11.5714 13.6154 11.1112C13.6154 10.6509 13.2423 10.2778 12.7821 10.2778C12.3218 10.2778 11.9487 10.6509 11.9487 11.1112C11.9487 11.5714 12.3218 11.9445 12.7821 11.9445Z" fill="#282529"/>
</g>
<defs>
<clipPath id="clip0_310_1435">
<rect width="20" height="20" fill="white"/>
</clipPath>
</defs>
</svg>
